<mxfile host="app.diagrams.net" modified="2023-09-17T12:21:12.847Z" agent="Mozilla/5.0 (Windows NT 10.0; Win64; x64) AppleWebKit/537.36 (KHTML, like Gecko) Chrome/115.0.0.0 Safari/537.36 OPR/101.0.0.0" etag="el6nQ_HNA8V9hR4Masvq" version="21.7.5" type="device">
  <diagram name="Страница — 1" id="hobWc4s-Q6fWILHCbpvD">
    <mxGraphModel dx="1188" dy="619" grid="1" gridSize="10" guides="1" tooltips="1" connect="1" arrows="1" fold="1" page="1" pageScale="1" pageWidth="1169" pageHeight="827" math="0" shadow="0">
      <root>
        <mxCell id="0" />
        <mxCell id="1" parent="0" />
        <mxCell id="bafYPbkGJhW7oxayyBe3-47" value="" style="rounded=0;whiteSpace=wrap;html=1;" parent="1" vertex="1">
          <mxGeometry x="60" y="50" width="770" height="560" as="geometry" />
        </mxCell>
        <mxCell id="bafYPbkGJhW7oxayyBe3-1" value="" style="rounded=0;whiteSpace=wrap;html=1;" parent="1" vertex="1">
          <mxGeometry x="240" y="60" width="400" height="540" as="geometry" />
        </mxCell>
        <mxCell id="bafYPbkGJhW7oxayyBe3-4" style="rounded=0;orthogonalLoop=1;jettySize=auto;html=1;entryX=0;entryY=0.5;entryDx=0;entryDy=0;" parent="1" source="bafYPbkGJhW7oxayyBe3-2" target="bafYPbkGJhW7oxayyBe3-3" edge="1">
          <mxGeometry relative="1" as="geometry" />
        </mxCell>
        <mxCell id="bafYPbkGJhW7oxayyBe3-25" style="rounded=0;orthogonalLoop=1;jettySize=auto;html=1;entryX=0;entryY=0;entryDx=0;entryDy=0;" parent="1" source="bafYPbkGJhW7oxayyBe3-2" target="bafYPbkGJhW7oxayyBe3-19" edge="1">
          <mxGeometry relative="1" as="geometry" />
        </mxCell>
        <mxCell id="iALMkwSSL6uoYG6ehfJ8-5" style="rounded=0;orthogonalLoop=1;jettySize=auto;html=1;entryX=0;entryY=1;entryDx=0;entryDy=0;" parent="1" source="bafYPbkGJhW7oxayyBe3-2" target="iALMkwSSL6uoYG6ehfJ8-2" edge="1">
          <mxGeometry relative="1" as="geometry" />
        </mxCell>
        <mxCell id="bafYPbkGJhW7oxayyBe3-2" value="Користувач" style="shape=umlActor;verticalLabelPosition=bottom;verticalAlign=top;html=1;outlineConnect=0;" parent="1" vertex="1">
          <mxGeometry x="110" y="230" width="30" height="60" as="geometry" />
        </mxCell>
        <mxCell id="bafYPbkGJhW7oxayyBe3-24" style="rounded=0;orthogonalLoop=1;jettySize=auto;html=1;exitX=1;exitY=0;exitDx=0;exitDy=0;" parent="1" source="bafYPbkGJhW7oxayyBe3-3" target="bafYPbkGJhW7oxayyBe3-8" edge="1">
          <mxGeometry relative="1" as="geometry" />
        </mxCell>
        <mxCell id="bafYPbkGJhW7oxayyBe3-3" value="Запит на&amp;nbsp;створення відповідної вологості&lt;span id=&quot;docs-internal-guid-c57abb48-7fff-8af7-19ce-6c347189a080&quot;&gt;&lt;/span&gt;" style="ellipse;whiteSpace=wrap;html=1;" parent="1" vertex="1">
          <mxGeometry x="280" y="250" width="170" height="50" as="geometry" />
        </mxCell>
        <mxCell id="bafYPbkGJhW7oxayyBe3-6" style="rounded=0;orthogonalLoop=1;jettySize=auto;html=1;exitX=0.5;exitY=1;exitDx=0;exitDy=0;entryX=0.5;entryY=0;entryDx=0;entryDy=0;dashed=1;" parent="1" source="bafYPbkGJhW7oxayyBe3-5" target="bafYPbkGJhW7oxayyBe3-3" edge="1">
          <mxGeometry relative="1" as="geometry" />
        </mxCell>
        <mxCell id="bafYPbkGJhW7oxayyBe3-7" value="&amp;lt;&amp;lt;include&amp;gt;&amp;gt;" style="edgeLabel;html=1;align=center;verticalAlign=middle;resizable=0;points=[];" parent="bafYPbkGJhW7oxayyBe3-6" vertex="1" connectable="0">
          <mxGeometry x="0.0924" y="1" relative="1" as="geometry">
            <mxPoint as="offset" />
          </mxGeometry>
        </mxCell>
        <mxCell id="bafYPbkGJhW7oxayyBe3-5" value="Аналіз погодних умов&lt;span id=&quot;docs-internal-guid-c57abb48-7fff-8af7-19ce-6c347189a080&quot;&gt;&lt;/span&gt;" style="ellipse;whiteSpace=wrap;html=1;" parent="1" vertex="1">
          <mxGeometry x="467.5" y="170" width="160" height="40" as="geometry" />
        </mxCell>
        <mxCell id="bafYPbkGJhW7oxayyBe3-22" style="rounded=0;orthogonalLoop=1;jettySize=auto;html=1;entryX=1;entryY=0.5;entryDx=0;entryDy=0;" parent="1" source="bafYPbkGJhW7oxayyBe3-8" target="bafYPbkGJhW7oxayyBe3-13" edge="1">
          <mxGeometry relative="1" as="geometry" />
        </mxCell>
        <mxCell id="bafYPbkGJhW7oxayyBe3-8" value="Технічний персонал офісу" style="shape=umlActor;verticalLabelPosition=bottom;verticalAlign=top;html=1;outlineConnect=0;" parent="1" vertex="1">
          <mxGeometry x="730" y="170" width="30" height="60" as="geometry" />
        </mxCell>
        <mxCell id="bafYPbkGJhW7oxayyBe3-13" value="Зміна рівню вологості&lt;span id=&quot;docs-internal-guid-c57abb48-7fff-8af7-19ce-6c347189a080&quot;&gt;&lt;/span&gt;" style="ellipse;whiteSpace=wrap;html=1;" parent="1" vertex="1">
          <mxGeometry x="450" y="280" width="170" height="50" as="geometry" />
        </mxCell>
        <mxCell id="bafYPbkGJhW7oxayyBe3-17" style="rounded=0;orthogonalLoop=1;jettySize=auto;html=1;exitX=0.5;exitY=0;exitDx=0;exitDy=0;entryX=0.5;entryY=1;entryDx=0;entryDy=0;dashed=1;" parent="1" source="bafYPbkGJhW7oxayyBe3-16" target="bafYPbkGJhW7oxayyBe3-13" edge="1">
          <mxGeometry relative="1" as="geometry" />
        </mxCell>
        <mxCell id="bafYPbkGJhW7oxayyBe3-18" value="&amp;lt;&amp;lt;include&amp;gt;&amp;gt;" style="edgeLabel;html=1;align=center;verticalAlign=middle;resizable=0;points=[];" parent="bafYPbkGJhW7oxayyBe3-17" vertex="1" connectable="0">
          <mxGeometry x="0.0505" y="-1" relative="1" as="geometry">
            <mxPoint y="7" as="offset" />
          </mxGeometry>
        </mxCell>
        <mxCell id="bafYPbkGJhW7oxayyBe3-16" value="Попередній аналіз середовища&lt;span id=&quot;docs-internal-guid-c57abb48-7fff-8af7-19ce-6c347189a080&quot;&gt;&lt;/span&gt;" style="ellipse;whiteSpace=wrap;html=1;" parent="1" vertex="1">
          <mxGeometry x="482.5" y="370" width="150" height="46" as="geometry" />
        </mxCell>
        <mxCell id="bafYPbkGJhW7oxayyBe3-28" style="rounded=0;orthogonalLoop=1;jettySize=auto;html=1;exitX=0.5;exitY=1;exitDx=0;exitDy=0;" parent="1" source="bafYPbkGJhW7oxayyBe3-19" target="bafYPbkGJhW7oxayyBe3-26" edge="1">
          <mxGeometry relative="1" as="geometry" />
        </mxCell>
        <mxCell id="bafYPbkGJhW7oxayyBe3-19" value="Запит на надання необхідної інформації&lt;span id=&quot;docs-internal-guid-c57abb48-7fff-8af7-19ce-6c347189a080&quot;&gt;&lt;/span&gt;" style="ellipse;whiteSpace=wrap;html=1;" parent="1" vertex="1">
          <mxGeometry x="260" y="350" width="190" height="50" as="geometry" />
        </mxCell>
        <mxCell id="bafYPbkGJhW7oxayyBe3-35" style="rounded=0;orthogonalLoop=1;jettySize=auto;html=1;entryX=1;entryY=0.5;entryDx=0;entryDy=0;" parent="1" source="bafYPbkGJhW7oxayyBe3-26" target="bafYPbkGJhW7oxayyBe3-36" edge="1">
          <mxGeometry relative="1" as="geometry" />
        </mxCell>
        <mxCell id="bafYPbkGJhW7oxayyBe3-46" style="rounded=0;orthogonalLoop=1;jettySize=auto;html=1;entryX=1;entryY=0.5;entryDx=0;entryDy=0;" parent="1" source="bafYPbkGJhW7oxayyBe3-26" target="bafYPbkGJhW7oxayyBe3-29" edge="1">
          <mxGeometry relative="1" as="geometry" />
        </mxCell>
        <mxCell id="bafYPbkGJhW7oxayyBe3-26" value="Співробітник офісу" style="shape=umlActor;verticalLabelPosition=bottom;verticalAlign=top;html=1;outlineConnect=0;" parent="1" vertex="1">
          <mxGeometry x="730" y="459" width="30" height="60" as="geometry" />
        </mxCell>
        <mxCell id="bafYPbkGJhW7oxayyBe3-39" style="rounded=0;orthogonalLoop=1;jettySize=auto;html=1;exitX=0;exitY=1;exitDx=0;exitDy=0;entryX=0.539;entryY=0.024;entryDx=0;entryDy=0;entryPerimeter=0;dashed=1;" parent="1" source="bafYPbkGJhW7oxayyBe3-29" target="bafYPbkGJhW7oxayyBe3-36" edge="1">
          <mxGeometry relative="1" as="geometry" />
        </mxCell>
        <mxCell id="bafYPbkGJhW7oxayyBe3-40" value="&amp;lt;&amp;lt;include&amp;gt;&amp;gt;" style="edgeLabel;html=1;align=center;verticalAlign=middle;resizable=0;points=[];" parent="bafYPbkGJhW7oxayyBe3-39" vertex="1" connectable="0">
          <mxGeometry x="-0.3289" y="-2" relative="1" as="geometry">
            <mxPoint x="-14" y="3" as="offset" />
          </mxGeometry>
        </mxCell>
        <mxCell id="bafYPbkGJhW7oxayyBe3-29" value="Пошук необхідної інформації&lt;span id=&quot;docs-internal-guid-c57abb48-7fff-8af7-19ce-6c347189a080&quot;&gt;&lt;/span&gt;" style="ellipse;whiteSpace=wrap;html=1;" parent="1" vertex="1">
          <mxGeometry x="480" y="468" width="135" height="42" as="geometry" />
        </mxCell>
        <mxCell id="bafYPbkGJhW7oxayyBe3-31" style="rounded=0;orthogonalLoop=1;jettySize=auto;html=1;exitX=1;exitY=1;exitDx=0;exitDy=0;entryX=0;entryY=0;entryDx=0;entryDy=0;dashed=1;" parent="1" source="bafYPbkGJhW7oxayyBe3-30" target="bafYPbkGJhW7oxayyBe3-29" edge="1">
          <mxGeometry relative="1" as="geometry" />
        </mxCell>
        <mxCell id="bafYPbkGJhW7oxayyBe3-34" value="&amp;lt;&amp;lt;include&amp;gt;&amp;gt;" style="edgeLabel;html=1;align=center;verticalAlign=middle;resizable=0;points=[];labelBackgroundColor=none;" parent="bafYPbkGJhW7oxayyBe3-31" vertex="1" connectable="0">
          <mxGeometry x="0.0425" relative="1" as="geometry">
            <mxPoint x="-12" y="-9" as="offset" />
          </mxGeometry>
        </mxCell>
        <mxCell id="bafYPbkGJhW7oxayyBe3-30" value="Аналіз різних джерел&lt;span id=&quot;docs-internal-guid-c57abb48-7fff-8af7-19ce-6c347189a080&quot;&gt;&lt;/span&gt;" style="ellipse;whiteSpace=wrap;html=1;" parent="1" vertex="1">
          <mxGeometry x="270" y="426" width="130" height="42" as="geometry" />
        </mxCell>
        <mxCell id="bafYPbkGJhW7oxayyBe3-43" style="edgeStyle=orthogonalEdgeStyle;rounded=0;orthogonalLoop=1;jettySize=auto;html=1;exitX=0;exitY=0.5;exitDx=0;exitDy=0;" parent="1" source="bafYPbkGJhW7oxayyBe3-36" edge="1">
          <mxGeometry relative="1" as="geometry">
            <mxPoint x="125" y="320" as="targetPoint" />
            <Array as="points">
              <mxPoint x="125" y="551" />
            </Array>
          </mxGeometry>
        </mxCell>
        <mxCell id="bafYPbkGJhW7oxayyBe3-36" value="Надання доступу до знайденої інформації&lt;span id=&quot;docs-internal-guid-c57abb48-7fff-8af7-19ce-6c347189a080&quot;&gt;&lt;/span&gt;" style="ellipse;whiteSpace=wrap;html=1;" parent="1" vertex="1">
          <mxGeometry x="310" y="530" width="160" height="42" as="geometry" />
        </mxCell>
        <mxCell id="bafYPbkGJhW7oxayyBe3-38" style="rounded=0;orthogonalLoop=1;jettySize=auto;html=1;entryX=0;entryY=0.5;entryDx=0;entryDy=0;endArrow=none;endFill=0;" parent="1" source="bafYPbkGJhW7oxayyBe3-37" target="bafYPbkGJhW7oxayyBe3-30" edge="1">
          <mxGeometry relative="1" as="geometry" />
        </mxCell>
        <mxCell id="bafYPbkGJhW7oxayyBe3-37" value="eLibrary" style="shape=umlActor;verticalLabelPosition=bottom;verticalAlign=top;html=1;outlineConnect=0;" parent="1" vertex="1">
          <mxGeometry x="160" y="408" width="30" height="60" as="geometry" />
        </mxCell>
        <mxCell id="iALMkwSSL6uoYG6ehfJ8-2" value="Створення музики&lt;span id=&quot;docs-internal-guid-c57abb48-7fff-8af7-19ce-6c347189a080&quot;&gt;&lt;/span&gt;" style="ellipse;whiteSpace=wrap;html=1;" parent="1" vertex="1">
          <mxGeometry x="260" y="160" width="160" height="40" as="geometry" />
        </mxCell>
        <mxCell id="iALMkwSSL6uoYG6ehfJ8-9" style="rounded=0;orthogonalLoop=1;jettySize=auto;html=1;entryX=1;entryY=0;entryDx=0;entryDy=0;dashed=1;" parent="1" source="iALMkwSSL6uoYG6ehfJ8-3" target="iALMkwSSL6uoYG6ehfJ8-2" edge="1">
          <mxGeometry relative="1" as="geometry" />
        </mxCell>
        <mxCell id="iALMkwSSL6uoYG6ehfJ8-10" value="&amp;lt;&amp;lt;include&amp;gt;&amp;gt;" style="edgeLabel;html=1;align=center;verticalAlign=middle;resizable=0;points=[];" parent="iALMkwSSL6uoYG6ehfJ8-9" vertex="1" connectable="0">
          <mxGeometry x="-0.196" y="1" relative="1" as="geometry">
            <mxPoint as="offset" />
          </mxGeometry>
        </mxCell>
        <mxCell id="iALMkwSSL6uoYG6ehfJ8-3" value="Складання рими&lt;span id=&quot;docs-internal-guid-c57abb48-7fff-8af7-19ce-6c347189a080&quot;&gt;&lt;/span&gt;" style="ellipse;whiteSpace=wrap;html=1;" parent="1" vertex="1">
          <mxGeometry x="490" y="80" width="135" height="40" as="geometry" />
        </mxCell>
        <mxCell id="iALMkwSSL6uoYG6ehfJ8-7" style="rounded=0;orthogonalLoop=1;jettySize=auto;html=1;entryX=0.5;entryY=0;entryDx=0;entryDy=0;dashed=1;" parent="1" source="iALMkwSSL6uoYG6ehfJ8-4" target="iALMkwSSL6uoYG6ehfJ8-2" edge="1">
          <mxGeometry relative="1" as="geometry" />
        </mxCell>
        <mxCell id="iALMkwSSL6uoYG6ehfJ8-8" value="&amp;lt;&amp;lt;include&amp;gt;&amp;gt;" style="edgeLabel;html=1;align=center;verticalAlign=middle;resizable=0;points=[];" parent="iALMkwSSL6uoYG6ehfJ8-7" vertex="1" connectable="0">
          <mxGeometry x="-0.2702" y="1" relative="1" as="geometry">
            <mxPoint as="offset" />
          </mxGeometry>
        </mxCell>
        <mxCell id="iALMkwSSL6uoYG6ehfJ8-4" value="Створення мелодії&lt;span id=&quot;docs-internal-guid-c57abb48-7fff-8af7-19ce-6c347189a080&quot;&gt;&lt;/span&gt;" style="ellipse;whiteSpace=wrap;html=1;" parent="1" vertex="1">
          <mxGeometry x="315" y="80" width="135" height="40" as="geometry" />
        </mxCell>
      </root>
    </mxGraphModel>
  </diagram>
</mxfile>
